<?xml version="1.0" encoding="UTF-8"?>
<svg width="222px" height="37px" viewBox="0 0 222 37" version="1.1" xmlns="http://www.w3.org/2000/svg" xmlns:xlink="http://www.w3.org/1999/xlink">
    <title>logo</title>
    <g id="Page-1" stroke="none" stroke-width="1" fill="none" fill-rule="evenodd">
        <g id="logo" fill-rule="nonzero">
            <polygon id="Path" fill="#005F9B" points="4.85567523 25.8516024 4.85567523 17.0902457 11.6270219 17.0902457 17.3259321 11.8259647 17.3259321 11.7544053 4.85567523 11.7544053 4.85567523 5.3389517 24.3406284 5.3389517 30.1159391 0 0 0 0 30.2727273 33.1493213 0.0777819303"></polygon>
            <polygon id="Path" fill="#003972" points="0 30.0917623 0 37 28.293646 11.3173552 28.293646 18.7092936 23.1833025 18.7092936 17.3259321 24.0269002 28.293646 24.0269002 28.293646 32.5939831 33.1493213 37 33.1493213 0"></polygon>
            <path d="M39.1764706,28.030303 L39.1764706,7.84848485 L52.2352941,7.84848485 L52.2352941,9.82145891 C52.2389298,10.1088066 52.13566,10.3856157 51.9488095,10.589103 C51.761959,10.7925904 51.507363,10.9055111 51.2427662,10.9022535 L42.2723011,10.9022535 L42.2723011,15.8751062 L51.0442802,15.8751062 L51.0442802,17.8211353 C51.0479586,18.1114763 50.9450842,18.3914694 50.7583676,18.5993031 C50.571651,18.8071368 50.3164466,18.9257202 50.0490934,18.9288749 L42.2723011,18.9288749 L42.2723011,26.9525023 C42.2524509,27.5385935 41.819539,28.0087453 41.279871,28.030303 L39.1764706,28.030303 Z" id="Path" fill="#005F9B"></path>
            <path d="M54.2443439,28.030303 L54.2443439,7.84848485 L56.2935746,7.84848485 C56.8304724,7.8647087 57.2581147,8.35594045 57.2579186,8.95622446 L57.2579186,26.9525023 C57.2465637,27.5424186 56.8213922,28.0176123 56.2935746,28.030303 L54.2443439,28.030303 Z" id="Path" fill="#005F9B"></path>
            <path d="M76.2617626,27.1890197 C76.3605228,27.3512685 76.3709149,27.556044 76.2891353,27.7283941 C76.2073557,27.9007442 76.0454109,28.015365 75.8625762,28.030303 L72.888637,28.030303 L67.5766056,20.2162479 L63.4792416,20.2162479 L63.4792416,26.9525023 C63.467101,27.5435543 63.0128504,28.019195 62.4499108,28.030303 L60.2714932,28.030303 L60.2714932,7.84848485 L69.5183626,7.84848485 C72.5008558,7.87542987 74.6308008,9.06101064 74.6308008,12.506979 L74.6308008,15.6535583 C74.5794768,17.8899947 73.4275387,19.6504026 71.3717284,20.1264312 L76.2617626,27.1890197 Z M69.0707035,17.1654732 C70.6503414,17.1385281 71.4259037,16.8481207 71.4259037,15.0697496 L71.4259037,12.782417 C71.4259037,10.9681191 70.2853709,10.9142291 68.7941243,10.9142291 L63.4792416,10.9142291 L63.4792416,17.1774487 L69.0707035,17.1654732 Z" id="Shape" fill="#005F9B"></path>
            <path d="M78.3529412,24.9634002 L88.0078506,24.9634002 C88.7953721,24.9634002 89.263401,24.6456246 89.263401,23.764247 L89.263401,21.5518091 C89.263401,20.2597214 88.7028874,19.9719247 87.5145987,19.8130368 L82.8343107,19.1565004 C80.3960768,18.8117438 78.5239616,17.9423577 78.5239616,14.9384787 L78.5239616,12.5401721 C78.5744078,9.27247939 80.3960768,7.84848485 83.3527857,7.84848485 L91.603545,7.84848485 L91.603545,9.8240899 C91.6073571,10.1123475 91.5019893,10.389994 91.3114211,10.5938433 C91.1208528,10.7976925 90.8612953,10.9104036 90.591818,10.9063257 L83.1313829,10.9063257 C82.144879,10.9063257 81.6768502,11.2480844 81.6768502,12.3543034 L81.6768502,14.6207031 C81.6768502,15.5440511 82.7614439,15.7539029 83.5741886,15.8588289 L88.0807174,16.4913822 C90.6170411,16.8601219 92.4162896,17.8883958 92.4162896,20.9162579 L92.4162896,23.6833041 C92.3658434,26.7141641 90.9141133,28.030303 88.2292535,28.030303 L79.3619293,28.030303 C79.0934273,28.0334805 78.8350367,27.9208179 78.645165,27.7177137 C78.4552932,27.5146095 78.3499708,27.2382112 78.3529412,26.9509968 L78.3529412,24.9634002 Z" id="Path" fill="#005F9B"></path>
            <path d="M99.8139006,28.030303 L99.8139006,10.9022535 L94.467095,10.9022535 C94.1884418,10.9063259 93.9200461,10.793765 93.7229888,10.5901872 C93.5259315,10.3866094 93.4169759,10.1093326 93.4208145,9.82145891 L93.4208145,7.84848485 L109.493213,7.84848485 L109.493213,9.82145891 C109.49163,10.41652 109.025928,10.8989681 108.449934,10.9022535 L103.074148,10.9022535 L103.074148,26.9525023 C103.070981,27.5463945 102.605739,28.0270308 102.030869,28.030303 L99.8139006,28.030303 Z" id="Path" fill="#005F9B"></path>
            <path d="M125.195804,7.84848485 C125.62005,7.85295378 125.999075,8.13436909 126.153022,8.55919345 L132.571688,27.4304559 C132.69448,27.7723158 132.351221,28.030257 132.058195,28.030257 L129.546543,28.030257 L127.704665,22.6024355 L120.448781,22.6024355 L118.97807,27.2925125 C118.83051,27.738336 118.436069,28.0345474 117.995735,28.030257 L115.520362,28.030257 L122.131588,7.84848485 L125.195804,7.84848485 Z M126.691632,19.603665 L124.032072,11.4470094 L121.358558,19.6186589 L126.691632,19.603665 Z" id="Shape" fill="#003972"></path>
            <path d="M140.958232,28.0280637 C136.514189,28.1088898 134.606335,26.0044181 134.606335,21.2686083 L134.606335,14.6109339 C134.657744,9.92900811 136.188597,7.84848485 140.958232,7.84848485 L148.669683,7.84848485 L148.669683,9.82124 C148.67271,10.108834 148.565076,10.3855948 148.371044,10.5889674 C148.177012,10.79234 147.912963,10.9051555 147.638578,10.9019147 L140.706898,10.9019147 C138.396338,10.9019147 137.819412,12.243029 137.819412,14.5839918 L137.819412,20.9782331 C137.819412,23.2144214 138.105019,24.9776275 140.706898,24.9776275 L148.663906,24.9776275 L148.663906,26.9503826 C148.643249,27.5375195 148.193091,28.0080405 147.632865,28.0280637 L140.958232,28.0280637 Z" id="Path" fill="#003972"></path>
            <path d="M157.071819,28.030303 L157.071819,10.9022535 L151.722115,10.9022535 C151.443961,10.9055111 151.17632,10.7925904 150.979896,10.589103 C150.783472,10.3856157 150.674911,10.1088066 150.678733,9.82145891 L150.678733,7.84848485 L166.751131,7.84848485 L166.751131,9.82145891 C166.749539,10.4176827 166.282081,10.9006087 165.704954,10.9022535 L160.332066,10.9022535 L160.332066,26.9525023 C160.328886,27.5475566 159.861891,28.0286683 159.285889,28.030303 L157.071819,28.030303 Z" id="Path" fill="#003972"></path>
            <path d="M179.128595,28.0280637 C174.683661,28.1088898 172.778281,26.0044181 172.778281,21.2686083 L172.778281,14.6109339 C172.826843,9.92900811 174.358003,7.84848485 179.128595,7.84848485 L186.841629,7.84848485 L186.841629,9.82124 C186.845396,10.1085558 186.738385,10.3853341 186.544764,10.5887989 C186.351142,10.7922637 186.087321,10.9051719 185.813137,10.9019147 L178.877211,10.9019147 C176.569044,10.9019147 175.992002,12.243029 175.992002,14.5839918 L175.992002,20.9782331 C175.992002,23.2144214 176.277667,24.9776275 178.877211,24.9776275 L186.824388,24.9776275 L186.824388,26.9503826 C186.803818,27.5364088 186.35522,28.0065084 185.795997,28.0280637 L179.128595,28.0280637 Z" id="Path" fill="#005F9B"></path>
            <path d="M193.727297,28.030303 C191.905135,28.030303 190.494712,27.3966036 189.621593,26.174469 C189.005446,25.3265188 188.850679,23.9474681 188.850679,22.8068091 C188.850679,19.9159327 189.493107,18.7752737 192.316874,17.5833152 L192.366516,17.5561567 L191.443755,16.3883391 C190.718755,15.4838517 190.307564,14.354631 190.275702,13.1806129 L190.275702,12.3326628 C190.275702,9.36031064 192.200068,7.84848485 194.997553,7.84848485 L196.457619,7.84848485 C199.278465,7.84848485 201.305035,9.20037698 201.331316,12.3326628 L201.331316,13.2047539 C201.331316,15.7244635 199.579238,17.317765 197.482584,18.2713317 L200.896217,21.8924714 C200.926763,21.6815961 200.944319,21.4689291 200.948779,21.2557543 L200.948779,20.9389046 C200.948779,20.833288 200.922498,20.7276715 200.922498,20.637143 L200.922498,17.9062002 L203.001631,17.9062002 C203.202727,17.9077606 203.394804,17.9926591 203.534792,18.1418586 C203.67478,18.2910581 203.750965,18.4920744 203.746264,18.6998333 L203.746264,20.7427595 C203.746264,22.1218102 203.693702,22.9456195 203.232321,24.2431945 L205.720273,26.811186 C205.844952,26.9275176 205.919576,27.0904375 205.927602,27.2638285 C205.922858,27.6129336 205.6493,27.894284 205.311454,27.8975279 L202.800142,27.8975279 L201.722614,26.7840275 C200.645086,27.991074 199.6172,28.030303 198.081211,28.030303 L193.727297,28.030303 Z M194.524492,19.5176073 C193.753881,19.7475715 193.02491,20.1063861 192.366516,20.5798082 C191.651084,21.0565916 191.674445,22.3028672 191.674445,23.0995179 C191.674445,24.955352 192.495002,25.3506597 194.24124,25.3506597 L197.543907,25.3506597 C198.05493,25.3506597 199.313506,25.2993602 199.725245,24.7954183 L194.524492,19.5176073 Z M195.108518,10.5009696 C194.848892,10.5108903 194.590763,10.5462544 194.337604,10.6065862 C193.683895,10.7714134 193.220512,11.37184 193.210434,12.0671125 L193.210434,13.1413839 C193.233795,14.0466688 193.671814,14.7316678 194.311323,15.3412263 L195.263285,16.2978106 C196.667868,15.7787806 198.419946,14.9036719 198.419946,13.1413839 L198.419946,12.1063415 C198.403692,11.4160215 197.957415,10.815762 197.316137,10.6216743 C197.085447,10.5703748 196.749632,10.5432163 196.49558,10.5160577 L195.108518,10.5009696 Z" id="Shape" fill="#005F9B"></path>
            <path d="M214.288532,28.0280637 C209.844501,28.1088898 207.936652,26.0044181 207.936652,21.2686083 L207.936652,14.6109339 C207.988061,9.92900811 209.51891,7.84848485 214.288532,7.84848485 L222,7.84848485 L222,9.82124 C222.003767,10.1085558 221.896777,10.3853341 221.703195,10.5887989 C221.509613,10.7922637 221.245845,10.9051719 220.971716,10.9019147 L214.037199,10.9019147 C211.726645,10.9019147 211.149721,12.243029 211.149721,14.5839918 L211.149721,20.9782331 C211.149721,23.2144214 211.435327,24.9776275 214.037199,24.9776275 L221.994187,24.9776275 L221.994187,26.9503826 C221.973621,27.5364088 221.525114,28.0065084 220.966004,28.0280637 L214.288532,28.0280637 Z" id="Path" fill="#005F9B"></path>
        </g>
    </g>
</svg>