<?xml version="1.0" encoding="UTF-8"?>
<svg width="187px" height="104px" viewBox="0 0 187 104" version="1.1" xmlns="http://www.w3.org/2000/svg" xmlns:xlink="http://www.w3.org/1999/xlink">
    <title>AI</title>
    <g id="Page-1" stroke="none" stroke-width="1" fill="none" fill-rule="evenodd">
        <g id="AI" fill-rule="nonzero">
            <polygon id="Path" fill="#005F9B" points="68.3982336 50.3819173 68.3982336 33.3080626 82.9021004 33.3080626 95.1066878 23.0419003 95.1066878 22.9045604 68.3982336 22.9045604 68.3982336 10.4035023 110.131558 10.4035023 122.501494 0 58 0 58 59 129 0.152946778"></polygon>
            <polygon id="Path" fill="#003972" points="58 59.3705621 58 73 118.601766 22.3241879 118.601766 36.9078124 107.657571 36.9078124 95.1066878 47.4038652 118.601766 47.4038652 118.601766 64.30525 129 73 129 0"></polygon>
            <path d="M0,103.981631 L0,85 L14,85 L14,86.8706091 C14.0025547,87.1409362 13.8909963,87.4009119 13.690369,87.5920701 C13.4897417,87.7832282 13.2168879,87.8895212 12.9331699,87.8870448 L3.32567226,87.8870448 L3.32567226,92.5620367 L12.7243112,92.5620367 L12.7243112,94.3989687 C12.7286011,94.6715125 12.6188499,94.9344729 12.4192944,95.1297797 C12.2197388,95.3250865 11.9467953,95.4366729 11.6607388,95.4398969 L3.32567226,95.4398969 L3.32567226,102.983564 C3.30430676,103.535098 2.84088674,103.977979 2.26209978,104 L0,103.981631 Z" id="Path" fill="#005F9B"></path>
            <path d="M16,104 L16,85 L18.0368574,85 C18.5729959,85.0149517 19.0001879,85.4770915 19,86.0419355 L19,102.979516 C18.9907282,103.536139 18.5653478,103.985492 18.0368574,103.996935 L16,104 Z" id="Path" fill="#005F9B"></path>
            <path d="M38.9186935,103.203226 C39.0167181,103.356392 39.0267811,103.549252 38.9452212,103.711632 C38.8636613,103.874012 38.7023687,103.982239 38.5200308,103.996935 L35.547058,103.996935 L30.2531884,96.6420968 L26.186211,96.6420968 L26.186211,102.982581 C26.1763638,103.539204 25.7245799,103.988556 25.1632859,104 L23,104 L23,85 L32.2155978,85 C35.1885706,85.0245161 37.3085908,86.14 37.3085908,89.3853226 L37.3085908,92.3579032 C37.2591442,94.4601613 36.1095123,96.121129 34.063662,96.5654839 L38.9186935,103.203226 Z M31.7489461,93.7675806 C33.3250544,93.7430645 34.0976565,93.461129 34.0976565,91.7848387 L34.0976565,89.6396774 C34.0976565,87.9327419 32.9727478,87.8837097 31.4738998,87.8837097 L26.186211,87.8837097 L26.186211,93.7767742 L31.7489461,93.7675806 Z" id="Shape" fill="#005F9B"></path>
            <path d="M41,101.1182 L50.6104243,101.1182 C51.3961189,101.1182 51.8632887,100.811303 51.8632887,99.9765451 L51.8632887,97.8927185 C51.8632887,96.6651328 51.2960111,96.4042708 50.1189859,96.2538916 L45.462456,95.6400988 C43.0356001,95.3332023 41.1729881,94.5015131 41.1729881,91.6719281 L41.1729881,89.4162394 C41.2215252,86.3472753 43.0356001,85 45.9781629,85 L54.1930704,85 L54.1930704,86.8444475 C54.1963451,87.1151442 54.0917058,87.3757654 53.9027733,87.5674797 C53.7138409,87.759194 53.4565422,87.8658399 53.1889587,87.8633436 L45.7567123,87.8633436 C44.7768692,87.8633436 44.3096994,88.17024 44.3096994,89.2259637 L44.3096994,91.3742386 C44.3096994,92.2427554 45.3896504,92.4422381 46.19658,92.540445 L50.6832299,93.135824 C53.2101937,93.482617 55,94.4493407 55,97.3034773 L55,99.9059589 C54.9514629,102.760096 53.50445,104 50.8318749,104 L42.0041863,104 C41.7366028,104.002453 41.4793041,103.895808 41.2903717,103.704093 C41.1014392,103.512379 40.9967999,103.251758 41,102.981061 L41,101.1182 Z" id="Path" fill="#005F9B"></path>
            <path d="M62.3749281,103.987748 L62.3749281,87.8731259 L57.0416092,87.8731259 C56.7645986,87.8756035 56.4981953,87.7692591 56.302311,87.5780085 C56.1064267,87.3867579 55.9975057,87.1266564 56,86.8561986 L56,85 L72,85 L72,86.8684507 C71.9982773,87.429386 71.53296,87.8836961 70.9584342,87.885378 L65.6282526,87.885378 L65.6282526,102.983073 C65.6265412,103.542819 65.1631243,103.996641 64.589824,104 L62.3749281,103.987748 Z" id="Path" fill="#005F9B"></path>
            <path d="M88.1970618,85 C88.6433701,85.0055261 89.0416722,85.2701747 89.2042974,85.6692496 L95.9735604,103.419714 C96.1014634,103.742059 95.7401376,103.990725 95.429973,103.990725 L92.7695918,103.990725 L90.8318623,98.8792547 L83.1832666,98.8792547 L81.6420362,103.306126 C81.4867917,103.724968 81.0722583,104.003437 80.6092199,103.999968 L78,103.999968 L84.9675126,85 L88.1970618,85 Z M89.7734655,96.0518286 L86.9819839,88.3769476 L84.1649216,96.0518286 L89.7734655,96.0518286 Z" id="Shape" fill="#003972"></path>
            <path d="M104.322561,103.987748 C99.899243,104.061261 98,102.082541 98,97.6258262 L98,91.3619217 C98.0494917,86.9572787 99.5744539,85 104.322561,85 L112,85 L112,86.8684507 C112.002459,87.1389086 111.895066,87.3990101 111.701931,87.5902606 C111.508795,87.7815112 111.246129,87.8878557 110.973005,87.885378 L104.075103,87.885378 C101.77374,87.885378 101.198399,89.1473481 101.198399,91.3496695 L101.198399,97.3654683 C101.198399,99.4697727 101.473697,101.126874 104.075103,101.126874 L112,101.126874 L112,102.983073 C111.979285,103.536005 111.531388,103.979529 110.973005,104 L104.322561,103.987748 Z" id="Path" fill="#003972"></path>
            <path d="M120.374928,103.987748 L120.374928,87.8731259 L115.041609,87.8731259 C114.764599,87.8756035 114.498195,87.7692591 114.302311,87.5780085 C114.106427,87.3867579 113.997506,87.1266564 114,86.8561986 L114,85 L130,85 L130,86.8684507 C129.996574,87.4286929 129.53225,87.8820332 128.958434,87.885378 L123.618841,87.885378 L123.618841,102.983073 C123.617129,103.542819 123.153713,103.996641 122.580412,104 L120.374928,103.987748 Z" id="Path" fill="#003972"></path>
            <path d="M143.319788,103.987748 C138.89841,104.061261 137,102.082541 137,97.6258262 L137,91.3619217 C137.04947,86.9572787 138.573763,85 143.319788,85 L150.990724,85 L150.990724,86.8684507 C150.994062,87.1386244 150.887412,87.398742 150.694848,87.5900859 C150.502284,87.7814298 150.240041,87.8878696 149.967314,87.885378 L143.078622,87.885378 C140.78136,87.885378 140.206272,89.1473481 140.206272,91.3496695 L140.206272,97.3654683 C140.206272,99.4697727 140.481449,101.126874 143.078622,101.126874 L151,101.126874 L151,102.983073 C150.980922,103.53551 150.534169,103.979434 149.97659,104 L143.319788,103.987748 Z" id="Path" fill="#005F9B"></path>
            <path d="M158.855787,104 C157.040007,104 155.635467,103.40065 154.765538,102.251382 C154.151842,101.45122 154,100.153659 154,99.081626 C154,96.3598374 154.632676,95.2847154 157.451247,94.163252 L157.501861,94.1385366 L156.581317,93.0386992 C155.862528,92.1855241 155.457133,91.1217642 155.429847,90.0172358 L155.429847,89.2201626 C155.429847,86.4211382 157.346855,85 160.133792,85 L161.59211,85 C164.404354,85 166.42259,86.2728455 166.447897,89.2201626 L166.447897,90.0419512 C166.447897,92.4146341 164.711202,93.9130081 162.613882,94.8120325 L166.014514,98.2320325 C166.043935,98.0334499 166.060839,97.8332898 166.065128,97.6326829 L166.065128,97.3237398 C166.065128,97.224878 166.039821,97.1229268 166.039821,97.0487805 L166.039821,94.4876423 L168.108671,94.4876423 C168.309454,94.4884097 168.501457,94.5681305 168.641335,94.7088073 C168.781212,94.8494841 168.857172,95.0392571 168.852066,95.2352846 L168.852066,97.16 C168.852066,98.457561 168.801451,99.2299187 168.339598,100.453333 L170.79438,102.850732 C170.917901,102.960735 170.991824,103.114011 171,103.277073 C170.988464,103.602789 170.719872,103.863751 170.386304,103.873333 L167.906215,103.873333 L166.83383,102.826016 C165.758281,103.975285 164.736509,104 163.20227,104 L158.855787,104 Z M159.646632,95.9860163 C158.88033,96.2010557 158.155655,96.5382215 157.501861,96.9839024 C156.786937,97.4318699 156.812244,98.6058537 156.812244,99.3565854 C156.812244,101.102114 157.628396,101.475935 159.368255,101.475935 L162.664496,101.475935 C163.176963,101.475935 164.429661,101.426504 164.837737,100.953821 L159.646632,95.9860163 Z M160.238184,87.4962602 C159.979278,87.5048365 159.721836,87.5379458 159.469483,87.595122 C158.818741,87.7508975 158.357413,88.3156635 158.346483,88.9699187 L158.346483,89.9678049 C158.395694,90.7784673 158.794618,91.5307183 159.444176,92.0377236 L160.393189,92.9398374 C161.800893,92.464065 163.537588,91.639187 163.537588,89.9678049 L163.537588,88.9946341 C163.522697,88.3434895 163.077098,87.7770019 162.436732,87.595122 C162.166629,87.5483164 161.894208,87.5153176 161.620581,87.4962602 L160.238184,87.4962602 Z" id="Shape" fill="#005F9B"></path>
            <path d="M179.32564,103.987748 C174.899238,104.061261 173,102.082541 173,97.6258262 L173,91.3619217 C173.049492,86.9572787 174.57445,85 179.32564,85 L187,85 L187,86.8684507 C187.003263,87.1386244 186.896566,87.398742 186.703918,87.5900859 C186.511271,87.7814298 186.248913,87.8878696 185.976067,87.885378 L179.075089,87.885378 C176.773731,87.885378 176.201485,89.1473481 176.201485,91.3496695 L176.201485,97.3654683 C176.201485,99.4697727 176.473689,101.126874 179.075089,101.126874 L187,101.126874 L187,102.983073 C186.979356,103.534873 186.533241,103.977969 185.976067,104 L179.32564,103.987748 Z" id="Path" fill="#005F9B"></path>
        </g>
    </g>
</svg>