<?xml version="1.0" encoding="UTF-8"?>
<svg width="222px" height="37px" viewBox="0 0 222 37" version="1.1" xmlns="http://www.w3.org/2000/svg" xmlns:xlink="http://www.w3.org/1999/xlink">
    <title>대지 10</title>
    <g id="Page-1" stroke="none" stroke-width="1" fill="none" fill-rule="evenodd">
        <g id="대지-10" fill="#FFFFFF" fill-rule="nonzero">
            <polygon id="Path" points="4.83380282 25.618705 4.83380282 16.9362795 11.5746479 16.9362795 17.2478873 11.7194245 17.2478873 11.6485098 4.83380282 11.6485098 4.83380282 5.29085303 24.2309859 5.29085303 29.9802817 0 0 0 0 30 33 0.0770811922"></polygon>
            <polygon id="Path" points="0 37 28.1661972 11.3173552 28.1661972 18.7092936 23.0788732 18.7092936 17.2478873 24.0269002 28.1661972 24.0269002 28.1661972 32.5939831 33 37 33 0 0 30.0917623"></polygon>
            <path d="M38,29 L38,8 L51,8 L51,10.0529595 C51.0036193,10.3519564 50.9008147,10.6399875 50.7148059,10.8517243 C50.528797,11.0634612 50.2753478,11.1809597 50.0119429,11.1775701 L41.0818853,11.1775701 L41.0818853,16.3520249 L49.814351,16.3520249 L49.814351,18.376947 C49.8180128,18.6790587 49.7156018,18.9704028 49.5297263,19.1866622 C49.3438507,19.4029216 49.0897959,19.5263125 48.823647,19.529595 L41.0818853,19.529595 L41.0818853,27.8785047 C41.0621245,28.4883563 40.6311627,28.9775683 40.0939256,29 L38,29 Z" id="Path"></path>
            <path d="M54,29 L54,8 L56.04,8 C56.5744793,8.01688158 57.0001952,8.52802813 57,9.15264798 L57,27.8785047 C56.9886963,28.4923365 56.5654399,28.9867948 56.04,29 L54,29 Z" id="Path"></path>
            <path d="M76.9182412,28.1246106 C77.0165564,28.2934371 77.0269018,28.5065143 76.9454905,28.6858515 C76.8640793,28.8651888 76.702864,28.9844564 76.5208528,29 L73.5603098,29 L68.2722065,20.8691589 L64.1932991,20.8691589 L64.1932991,27.8785047 C64.1812132,28.4935182 63.7290087,28.9884417 63.1686049,29 L61,29 L61,8 L70.2052169,8 C73.1742754,8.02803738 75.294626,9.26168224 75.294626,12.847352 L75.294626,16.1214953 C75.2435332,18.4485981 74.096784,20.2803738 72.0502341,20.7757009 L76.9182412,28.1246106 Z M69.7595742,17.694704 C71.3320966,17.6666667 72.1041654,17.364486 72.1041654,15.5140187 L72.1041654,13.1339564 C72.1041654,11.2461059 70.9687702,11.1900312 69.4842409,11.1900312 L64.1932991,11.1900312 L64.1932991,17.7071651 L69.7595742,17.694704 Z" id="Shape"></path>
            <path d="M78,25.8087633 L87.6114189,25.8087633 C88.395393,25.8087633 88.8613136,25.4781049 88.8613136,24.5609957 L88.8613136,22.2588644 C88.8613136,20.9143948 88.3033249,20.6149306 87.1203888,20.4496014 L82.4611832,19.7664486 C80.0339323,19.4077154 78.1702501,18.5030839 78.1702501,15.377426 L78.1702501,12.8818908 C78.220469,9.48172405 80.0339323,8 82.9773227,8 L91.1909164,8 L91.1909164,10.0556971 C91.1947113,10.3556408 91.0898182,10.6445433 90.9001084,10.8566567 C90.7103985,11.0687702 90.4520102,11.1860505 90.1837468,11.1818074 L82.7569172,11.1818074 C81.7748571,11.1818074 81.3089365,11.5374212 81.3089365,12.6884868 L81.3089365,15.0467676 C81.3089365,16.0075487 82.3886446,16.225908 83.1977282,16.3350877 L87.6839574,16.9932851 C90.2088563,17.3769736 92,18.4469344 92,21.5975476 L92,24.4767714 C91.949781,27.630504 90.5045903,29 87.8318244,29 L79.0044432,29 C78.7371506,29.0033063 78.4799239,28.8860763 78.2909075,28.6747381 C78.101891,28.4633999 77.997043,28.1757964 78,27.8769381 L78,25.8087633 Z" id="Path"></path>
            <path d="M99.3642884,29 L99.3642884,11.1775701 L94.0415675,11.1775701 C93.7641695,11.1818076 93.4969828,11.0646834 93.3008132,10.8528524 C93.1046435,10.6410215 92.9961787,10.3525037 93,10.0529595 L93,8 L109,8 L109,10.0529595 C108.998425,10.6721447 108.534821,11.1741515 107.96142,11.1775701 L102.60985,11.1775701 L102.60985,27.8785047 C102.606697,28.4964736 102.143551,28.9965951 101.57127,29 L99.3642884,29 Z" id="Path"></path>
            <path d="M124.631859,8 C125.054194,8.00465011 125.431511,8.29747415 125.584765,8.73952111 L131.974519,28.3758348 C132.096757,28.7315538 131.755045,28.9999521 131.463338,28.9999521 L128.963,28.9999521 L127.129419,23.3520838 L119.906219,23.3520838 L118.442132,28.232299 C118.295238,28.6961965 117.902573,29.0044164 117.464222,28.9999521 L115,28.9999521 L121.581446,8 L124.631859,8 Z M126.120949,20.2317416 L123.473369,11.7444107 L120.811897,20.2473433 L126.120949,20.2317416 Z" id="Shape"></path>
            <path d="M140.323285,28.9976699 C135.89926,29.0817728 134,26.8919846 134,21.9641825 L134,15.0366023 C134.051178,10.1648688 135.575135,8 140.323285,8 L148,8 L148,10.0527317 C148.003014,10.3519849 147.895864,10.6399658 147.702706,10.8515832 C147.509548,11.0632006 147.246688,11.1805897 146.973539,11.1772175 L140.073083,11.1772175 C137.772931,11.1772175 137.198604,12.5727013 137.198604,15.0085681 L137.198604,21.6620354 C137.198604,23.98888 137.482925,25.8235673 140.073083,25.8235673 L147.994249,25.8235673 L147.994249,27.876299 C147.973685,28.4872387 147.525555,28.9768349 146.967852,28.9976699 L140.323285,28.9976699 Z" id="Path"></path>
            <path d="M156.364288,29 L156.364288,11.1775701 L151.038682,11.1775701 C150.761781,11.1809597 150.495346,11.0634612 150.299807,10.8517243 C150.104267,10.6399875 149.996195,10.3519564 150,10.0529595 L150,8 L166,8 L166,10.0529595 C165.998415,10.6733545 165.533063,11.1758586 164.958535,11.1775701 L159.60985,11.1775701 L159.60985,27.8785047 C159.606684,28.4976827 159.141792,28.998299 158.568385,29 L156.364288,29 Z" id="Path"></path>
            <path d="M179.321709,28.9976699 C174.896797,29.0817728 173,26.8919846 173,21.9641825 L173,15.0366023 C173.048344,10.1648688 174.572607,8 179.321709,8 L187,8 L187,10.0527317 C187.00375,10.3516955 186.897221,10.6396945 186.704472,10.8514079 C186.511723,11.0631213 186.24909,11.1806068 185.97614,11.1772175 L179.071457,11.1772175 C176.773688,11.1772175 176.199246,12.5727013 176.199246,15.0085681 L176.199246,21.6620354 C176.199246,23.98888 176.483623,25.8235673 179.071457,25.8235673 L186.982836,25.8235673 L186.982836,27.876299 C186.96236,28.486083 186.515782,28.9752407 185.959078,28.9976699 L179.321709,28.9976699 Z" id="Path"></path>
            <path d="M193.569083,29 C191.861833,29 190.540356,28.34061 189.722298,27.0689294 C189.145007,26.1866029 189,24.7516447 189,23.5647428 C189,20.5566687 189.601915,19.3697667 192.247606,18.1294856 L192.294118,18.1012261 L191.429549,16.8860646 C190.75027,15.9449088 190.36501,14.7699088 190.335157,13.5482955 L190.335157,12.6659689 C190.335157,9.57311603 192.138167,8 194.759234,8 L196.127223,8 C198.770178,8 200.668947,9.40669856 200.69357,12.6659689 L200.69357,13.5734151 C200.69357,16.1952751 199.051984,17.8531699 197.087551,18.8453947 L200.28591,22.6133373 C200.314529,22.3939131 200.330978,22.1726245 200.335157,21.9508074 L200.335157,21.6211124 C200.335157,21.5112141 200.310534,21.4013158 200.310534,21.3071172 L200.310534,18.4654605 L202.25855,18.4654605 C202.446965,18.4670843 202.626929,18.5554245 202.758088,18.7106727 C202.889248,18.8659208 202.960629,19.0750864 202.956224,19.2912679 L202.956224,21.4170156 C202.956224,22.8519737 202.906977,23.7091806 202.474692,25.05936 L204.805746,27.7314593 C204.922562,27.852507 204.99248,28.0220319 205,28.2024522 C204.995555,28.5657101 204.739249,28.8584667 204.422709,28.8618421 L202.069767,28.8618421 L201.060192,27.7031998 C200.050616,28.9591806 199.087551,29 197.648427,29 L193.569083,29 Z M194.316005,20.142195 C193.593991,20.3814821 192.910991,20.7548431 192.294118,21.2474581 C191.623803,21.7435706 191.645691,23.0403708 191.645691,23.8693182 C191.645691,25.8003888 192.414501,26.2117225 194.050616,26.2117225 L197.145007,26.2117225 C197.623803,26.2117225 198.80301,26.1583433 199.188782,25.6339713 L194.316005,20.142195 Z M194.863201,10.7600179 C194.619948,10.7703408 194.378097,10.8071386 194.140903,10.8699163 C193.528419,11.0414257 193.094258,11.6661939 193.084815,12.3896531 L193.084815,13.5074761 C193.106703,14.4494617 193.5171,15.1622309 194.116279,15.7965012 L195.008208,16.791866 C196.324213,16.2517943 197.9658,15.3412081 197.9658,13.5074761 L197.9658,12.4304725 C197.950571,11.7121665 197.532438,11.0875721 196.931601,10.885616 C196.715458,10.8322368 196.400821,10.8039773 196.162791,10.7757177 L194.863201,10.7600179 Z" id="Shape"></path>
            <path d="M214.323269,28.9976699 C209.899255,29.0817728 208,26.8919846 208,21.9641825 L208,15.0366023 C208.051178,10.1648688 209.575131,8 214.323269,8 L222,8 L222,10.0527317 C222.00375,10.3516955 221.897242,10.6396945 221.704532,10.8514079 C221.511822,11.0631213 221.249242,11.1806068 220.976348,11.1772175 L214.073068,11.1772175 C211.772922,11.1772175 211.198596,12.5727013 211.198596,15.0085681 L211.198596,21.6620354 C211.198596,23.98888 211.482916,25.8235673 214.073068,25.8235673 L221.994213,25.8235673 L221.994213,27.876299 C221.97374,28.486083 221.527253,28.9752407 220.970662,28.9976699 L214.323269,28.9976699 Z" id="Path"></path>
        </g>
    </g>
</svg>